# xmcd CD database file
#
# Track frame offsets:
#	150
#	11922
#	23725
#	36537
#	46727
#	63462
#	77815
#	89275
#	103222
#	116517
#	133180
#	147340
#
# Disc length: 2111 seconds
#
# Revision: 1
# Processed by: cddbd v1.5.2PL0 Copyright (c) Steve Scherf et al.
# Submitted via: CDex 1.51
#
DISCID=a7083d0c
DTITLE=Vartan , Sylvie - I Grandi Successi Originali  - CD2
DYEAR=2000
DGENRE=Pop
TTITLE0=Tous mes copains (1963)
TTITLE1=Les vacances se suivent (1963)
TTITLE2=L'homme en noir (Pretty Woman) (1964)
TTITLE3=Sha la la (1964)
TTITLE4=La maritza (1969)
TTITLE5=Nostalgia (1969)
TTITLE6=Due minuti di felicità (2.35 de bonheur) (1967)
TTITLE7=Una cicala canta (per un'estate sola) (1968)
TTITLE8=Zum zum zum (1968)
TTITLE9=Baby Capone (1968)
TTITLE10=Per amore, per pietà (Par amour, par pitié ) (1969)
TTITLE11=Quando sorridi tù
EXTD=YEAR: 2000
EXTT0=
EXTT1=
EXTT2=
EXTT3=
EXTT4=
EXTT5=
EXTT6=
EXTT7=
EXTT8=
EXTT9=
EXTT10=
EXTT11=
PLAYORDER=
